<?xml version="1.0" encoding="UTF-8"?>
<svg xmlns="http://www.w3.org/2000/svg" xmlns:xlink="http://www.w3.org/1999/xlink" width="40px" height="40px" viewBox="0 0 40 40" version="1.1">
<g id="surface1">
<path style=" stroke:none;fill-rule:nonzero;fill:rgb(0%,0%,0%);fill-opacity:1;" d="M 10 20 L 10 30 L 30 30 L 30 10 L 10 10 Z M 29.441406 20 L 29.441406 29.441406 L 10.558594 29.441406 L 10.558594 10.558594 L 29.441406 10.558594 Z M 29.441406 20 "/>
<path style=" stroke:none;fill-rule:nonzero;fill:rgb(0%,0%,0%);fill-opacity:1;" d="M 13.839844 18.753906 L 13.839844 24.71875 L 14.398438 24.71875 L 14.414062 19.289062 L 14.441406 13.847656 L 16.480469 17.726562 L 18.519531 21.601562 L 19.105469 21.601562 L 18.679688 20.777344 C 18.441406 20.328125 17.398438 18.359375 16.367188 16.398438 L 14.496094 12.839844 L 13.839844 12.792969 Z M 13.839844 18.753906 "/>
<path style=" stroke:none;fill-rule:nonzero;fill:rgb(0%,0%,0%);fill-opacity:1;" d="M 15.121094 12.855469 C 15.121094 12.894531 16.144531 14.863281 17.398438 17.238281 L 19.671875 21.558594 L 19.953125 21.585938 C 20.113281 21.601562 20.238281 21.585938 20.238281 21.558594 C 20.238281 21.535156 19.207031 19.550781 17.945312 17.152344 L 15.65625 12.800781 L 15.382812 12.800781 C 15.238281 12.800781 15.121094 12.824219 15.121094 12.855469 Z M 15.121094 12.855469 "/>
<path style=" stroke:none;fill-rule:nonzero;fill:rgb(0%,0%,0%);fill-opacity:1;" d="M 16.839844 13.9375 C 17.167969 14.566406 18.199219 16.535156 19.136719 18.320312 L 20.839844 21.558594 L 21.480469 21.558594 L 25.558594 13.816406 L 25.585938 19.273438 L 25.601562 24.71875 L 26.078125 24.71875 L 26.078125 12.792969 L 25.785156 12.816406 L 25.480469 12.839844 L 23.425781 16.761719 C 22.296875 18.910156 21.320312 20.761719 21.265625 20.855469 C 21.167969 21.023438 21 20.734375 19 16.921875 L 16.839844 12.808594 L 16.535156 12.800781 L 16.238281 12.800781 Z M 16.839844 13.9375 "/>
<path style=" stroke:none;fill-rule:nonzero;fill:rgb(0%,0%,0%);fill-opacity:1;" d="M 21.664062 15.609375 L 20.175781 18.425781 L 20.304688 18.6875 C 20.375 18.839844 20.457031 18.9375 20.488281 18.902344 C 20.519531 18.863281 21.265625 17.480469 22.144531 15.816406 L 23.742188 12.800781 L 23.152344 12.800781 Z M 21.664062 15.609375 "/>
<path style=" stroke:none;fill-rule:nonzero;fill:rgb(0%,0%,0%);fill-opacity:1;" d="M 24.191406 13.054688 C 24.121094 13.199219 23.320312 14.71875 22.425781 16.433594 L 20.785156 19.542969 L 20.910156 19.824219 C 20.984375 19.976562 21.0625 20.089844 21.078125 20.070312 C 21.121094 20.023438 24.878906 12.878906 24.878906 12.839844 C 24.878906 12.816406 24.753906 12.800781 24.601562 12.800781 C 24.367188 12.800781 24.304688 12.839844 24.191406 13.054688 Z M 24.191406 13.054688 "/>
<path style=" stroke:none;fill-rule:nonzero;fill:rgb(0%,0%,0%);fill-opacity:1;" d="M 24.777344 15.960938 L 24.558594 16.398438 L 24.558594 24.71875 L 25.039062 24.71875 L 25.039062 20.121094 C 25.039062 17.59375 25.03125 15.519531 25.015625 15.519531 C 25 15.519531 24.894531 15.71875 24.777344 15.960938 Z M 24.777344 15.960938 "/>
<path style=" stroke:none;fill-rule:nonzero;fill:rgb(0%,0%,0%);fill-opacity:1;" d="M 14.878906 20.160156 L 14.878906 24.71875 L 15.441406 24.71875 L 15.441406 16.441406 L 15.199219 16.015625 C 15.0625 15.792969 14.9375 15.601562 14.921875 15.601562 C 14.894531 15.601562 14.878906 17.648438 14.878906 20.160156 Z M 14.878906 20.160156 "/>
<path style=" stroke:none;fill-rule:nonzero;fill:rgb(0%,0%,0%);fill-opacity:1;" d="M 15.921875 21.121094 L 15.921875 24.71875 L 16.480469 24.71875 L 16.480469 18.472656 L 16.238281 18 C 16.105469 17.734375 15.984375 17.519531 15.960938 17.519531 C 15.9375 17.519531 15.921875 19.136719 15.921875 21.121094 Z M 15.921875 21.121094 "/>
<path style=" stroke:none;fill-rule:nonzero;fill:rgb(0%,0%,0%);fill-opacity:1;" d="M 23.742188 17.945312 L 23.519531 18.359375 L 23.519531 24.71875 L 24 24.71875 L 24 21.121094 C 24 19.136719 23.992188 17.519531 23.984375 17.519531 C 23.96875 17.519531 23.863281 17.710938 23.742188 17.945312 Z M 23.742188 17.945312 "/>
<path style=" stroke:none;fill-rule:nonzero;fill:rgb(0%,0%,0%);fill-opacity:1;" d="M 16.960938 22.121094 L 16.960938 24.71875 L 17.519531 24.71875 L 17.519531 20.472656 L 17.28125 20 C 17.144531 19.734375 17.023438 19.519531 17 19.519531 C 16.976562 19.519531 16.960938 20.6875 16.960938 22.121094 Z M 16.960938 22.121094 "/>
<path style=" stroke:none;fill-rule:nonzero;fill:rgb(0%,0%,0%);fill-opacity:1;" d="M 22.703125 19.945312 L 22.480469 20.359375 L 22.480469 24.71875 L 22.960938 24.71875 L 22.960938 22.121094 C 22.960938 20.6875 22.953125 19.519531 22.945312 19.519531 C 22.929688 19.519531 22.824219 19.710938 22.703125 19.945312 Z M 22.703125 19.945312 "/>
<path style=" stroke:none;fill-rule:nonzero;fill:rgb(0%,0%,0%);fill-opacity:1;" d="M 15.679688 26.800781 C 15.679688 27.328125 15.816406 27.464844 15.855469 26.976562 L 15.878906 26.679688 L 15.992188 26.894531 C 16.054688 27.023438 16.128906 27.121094 16.160156 27.121094 C 16.191406 27.121094 16.265625 27.023438 16.328125 26.894531 L 16.441406 26.679688 L 16.464844 26.976562 C 16.503906 27.464844 16.640625 27.328125 16.640625 26.800781 C 16.640625 26.257812 16.488281 26.144531 16.320312 26.558594 C 16.265625 26.6875 16.191406 26.800781 16.160156 26.800781 C 16.128906 26.800781 16.054688 26.6875 16 26.558594 C 15.832031 26.144531 15.679688 26.257812 15.679688 26.800781 Z M 15.679688 26.800781 "/>
<path style=" stroke:none;fill-rule:nonzero;fill:rgb(0%,0%,0%);fill-opacity:1;" d="M 17.441406 26.800781 L 17.441406 27.28125 L 17.761719 27.28125 C 17.9375 27.28125 18.078125 27.238281 18.078125 27.199219 C 18.078125 27.152344 17.976562 27.121094 17.839844 27.121094 C 17.679688 27.121094 17.601562 27.078125 17.601562 27 C 17.601562 26.929688 17.671875 26.878906 17.800781 26.878906 C 17.910156 26.878906 18 26.839844 18 26.800781 C 18 26.753906 17.910156 26.71875 17.800781 26.71875 C 17.671875 26.71875 17.601562 26.671875 17.601562 26.601562 C 17.601562 26.519531 17.679688 26.480469 17.839844 26.480469 C 17.976562 26.480469 18.078125 26.441406 18.078125 26.398438 C 18.078125 26.351562 17.9375 26.320312 17.761719 26.320312 L 17.441406 26.320312 Z M 17.441406 26.800781 "/>
<path style=" stroke:none;fill-rule:nonzero;fill:rgb(0%,0%,0%);fill-opacity:1;" d="M 18.800781 26.398438 C 18.800781 26.441406 18.871094 26.480469 18.960938 26.480469 C 19.097656 26.480469 19.121094 26.535156 19.121094 26.878906 C 19.121094 27.097656 19.160156 27.28125 19.199219 27.28125 C 19.246094 27.28125 19.28125 27.097656 19.28125 26.878906 C 19.28125 26.535156 19.304688 26.480469 19.441406 26.480469 C 19.527344 26.480469 19.601562 26.441406 19.601562 26.398438 C 19.601562 26.351562 19.425781 26.320312 19.199219 26.320312 C 18.984375 26.320312 18.800781 26.351562 18.800781 26.398438 Z M 18.800781 26.398438 "/>
<path style=" stroke:none;fill-rule:nonzero;fill:rgb(0%,0%,0%);fill-opacity:1;" d="M 20.320312 26.800781 C 20.320312 27.0625 20.351562 27.28125 20.398438 27.28125 C 20.449219 27.28125 20.480469 27.191406 20.480469 27.078125 C 20.480469 26.910156 20.519531 26.878906 20.71875 26.878906 C 20.921875 26.878906 20.960938 26.910156 20.960938 27.078125 C 20.960938 27.191406 21 27.28125 21.039062 27.28125 C 21.089844 27.28125 21.121094 27.0625 21.121094 26.800781 C 21.121094 26.535156 21.089844 26.320312 21.039062 26.320312 C 21 26.320312 20.960938 26.40625 20.960938 26.519531 C 20.960938 26.6875 20.921875 26.71875 20.71875 26.71875 C 20.519531 26.71875 20.480469 26.6875 20.480469 26.519531 C 20.480469 26.40625 20.449219 26.320312 20.398438 26.320312 C 20.351562 26.320312 20.320312 26.535156 20.320312 26.800781 Z M 20.320312 26.800781 "/>
<path style=" stroke:none;fill-rule:nonzero;fill:rgb(0%,0%,0%);fill-opacity:1;" d="M 22.054688 26.464844 C 21.777344 26.769531 21.960938 27.28125 22.351562 27.28125 C 22.753906 27.28125 22.9375 26.777344 22.640625 26.480469 C 22.441406 26.28125 22.222656 26.273438 22.054688 26.464844 Z M 22.574219 26.679688 C 22.65625 26.847656 22.648438 26.910156 22.535156 27.023438 C 22.289062 27.273438 21.9375 26.871094 22.160156 26.601562 C 22.3125 26.425781 22.472656 26.457031 22.574219 26.679688 Z M 22.574219 26.679688 "/>
<path style=" stroke:none;fill-rule:nonzero;fill:rgb(0%,0%,0%);fill-opacity:1;" d="M 23.601562 26.800781 L 23.601562 27.28125 L 23.871094 27.28125 C 24.167969 27.28125 24.398438 27.054688 24.398438 26.785156 C 24.398438 26.558594 24.105469 26.320312 23.839844 26.320312 L 23.601562 26.320312 Z M 24.152344 26.65625 C 24.238281 26.886719 24.121094 27.121094 23.921875 27.121094 C 23.785156 27.121094 23.761719 27.0625 23.761719 26.800781 C 23.761719 26.527344 23.785156 26.480469 23.921875 26.480469 C 24.015625 26.480469 24.113281 26.550781 24.152344 26.65625 Z M 24.152344 26.65625 "/>
<path style=" stroke:none;fill-rule:nonzero;fill:rgb(0%,0%,0%);fill-opacity:1;" d="M 16.160156 28.640625 C 16.160156 28.902344 16.191406 29.121094 16.238281 29.121094 C 16.289062 29.121094 16.320312 29.03125 16.320312 28.921875 C 16.320312 28.761719 16.359375 28.71875 16.519531 28.71875 C 16.632812 28.71875 16.71875 28.679688 16.71875 28.640625 C 16.71875 28.59375 16.632812 28.558594 16.519531 28.558594 C 16.390625 28.558594 16.320312 28.511719 16.320312 28.441406 C 16.320312 28.359375 16.398438 28.320312 16.558594 28.320312 C 16.695312 28.320312 16.800781 28.28125 16.800781 28.238281 C 16.800781 28.191406 16.65625 28.160156 16.480469 28.160156 L 16.160156 28.160156 Z M 16.160156 28.640625 "/>
<path style=" stroke:none;fill-rule:nonzero;fill:rgb(0%,0%,0%);fill-opacity:1;" d="M 17.519531 28.640625 C 17.519531 28.902344 17.550781 29.121094 17.601562 29.121094 C 17.648438 29.121094 17.679688 28.902344 17.679688 28.640625 C 17.679688 28.375 17.648438 28.160156 17.601562 28.160156 C 17.550781 28.160156 17.519531 28.375 17.519531 28.640625 Z M 17.519531 28.640625 "/>
<path style=" stroke:none;fill-rule:nonzero;fill:rgb(0%,0%,0%);fill-opacity:1;" d="M 18.535156 28.214844 C 18.503906 28.238281 18.480469 28.457031 18.480469 28.695312 C 18.480469 29.015625 18.511719 29.121094 18.601562 29.121094 C 18.6875 29.121094 18.71875 29.03125 18.71875 28.824219 L 18.71875 28.535156 L 18.945312 28.824219 C 19.265625 29.246094 19.359375 29.207031 19.359375 28.632812 C 19.359375 28.28125 19.335938 28.152344 19.265625 28.175781 C 19.207031 28.199219 19.144531 28.320312 19.121094 28.457031 L 19.078125 28.703125 L 18.878906 28.433594 C 18.671875 28.152344 18.625 28.121094 18.535156 28.214844 Z M 18.535156 28.214844 "/>
<path style=" stroke:none;fill-rule:nonzero;fill:rgb(0%,0%,0%);fill-opacity:1;" d="M 20.160156 28.640625 L 20.160156 29.121094 L 20.425781 29.121094 C 20.742188 29.121094 20.960938 28.921875 20.960938 28.625 C 20.960938 28.359375 20.726562 28.160156 20.414062 28.160156 L 20.160156 28.160156 Z M 20.753906 28.496094 C 20.863281 28.679688 20.726562 28.910156 20.488281 28.945312 C 20.335938 28.96875 20.320312 28.9375 20.320312 28.640625 C 20.320312 28.34375 20.335938 28.3125 20.488281 28.335938 C 20.585938 28.351562 20.703125 28.425781 20.753906 28.496094 Z M 20.753906 28.496094 "/>
<path style=" stroke:none;fill-rule:nonzero;fill:rgb(0%,0%,0%);fill-opacity:1;" d="M 21.761719 28.640625 L 21.761719 29.121094 L 22.078125 29.121094 C 22.257812 29.121094 22.398438 29.078125 22.398438 29.039062 C 22.398438 28.992188 22.296875 28.960938 22.160156 28.960938 C 22 28.960938 21.921875 28.921875 21.921875 28.839844 C 21.921875 28.769531 21.992188 28.71875 22.121094 28.71875 C 22.230469 28.71875 22.320312 28.679688 22.320312 28.640625 C 22.320312 28.59375 22.230469 28.558594 22.121094 28.558594 C 21.992188 28.558594 21.921875 28.511719 21.921875 28.441406 C 21.921875 28.359375 22 28.320312 22.160156 28.320312 C 22.296875 28.320312 22.398438 28.28125 22.398438 28.238281 C 22.398438 28.191406 22.257812 28.160156 22.078125 28.160156 L 21.761719 28.160156 Z M 21.761719 28.640625 "/>
<path style=" stroke:none;fill-rule:nonzero;fill:rgb(0%,0%,0%);fill-opacity:1;" d="M 23.199219 28.640625 C 23.199219 28.902344 23.230469 29.121094 23.28125 29.121094 C 23.328125 29.121094 23.359375 29.046875 23.359375 28.960938 C 23.359375 28.871094 23.40625 28.800781 23.472656 28.800781 C 23.535156 28.800781 23.617188 28.871094 23.640625 28.960938 C 23.664062 29.046875 23.742188 29.121094 23.808594 29.121094 C 23.902344 29.121094 23.902344 29.089844 23.839844 28.960938 C 23.785156 28.847656 23.777344 28.753906 23.839844 28.648438 C 23.945312 28.449219 23.945312 28.433594 23.792969 28.289062 C 23.726562 28.214844 23.558594 28.160156 23.433594 28.160156 C 23.199219 28.160156 23.199219 28.160156 23.199219 28.640625 Z M 23.679688 28.480469 C 23.679688 28.585938 23.625 28.640625 23.519531 28.640625 C 23.414062 28.640625 23.359375 28.585938 23.359375 28.480469 C 23.359375 28.375 23.414062 28.320312 23.519531 28.320312 C 23.625 28.320312 23.679688 28.375 23.679688 28.480469 Z M 23.679688 28.480469 "/>
</g>
</svg>
